<svg width="20" height="20" viewBox="0 0 20 20" fill="none" xmlns="http://www.w3.org/2000/svg">
<g id="Solid/Files/File-user">
<g id="Icon">
<path fill-rule="evenodd" clip-rule="evenodd" d="M11.8743 2.08333C11.8743 1.96827 11.7811 1.875 11.666 1.875H5.83268C4.56703 1.875 3.54102 2.90102 3.54102 4.16667V15.8333C3.54102 17.099 4.56703 18.125 5.83268 18.125H14.166C15.4317 18.125 16.4577 17.099 16.4577 15.8333V7.62255C16.4577 7.50749 16.3644 7.41422 16.2493 7.41422H12.4993C12.1542 7.41422 11.8743 7.13439 11.8743 6.78922V2.08333ZM9.99935 8.33333C9.07887 8.33333 8.33268 9.07953 8.33268 10C8.33268 10.9205 9.07887 11.6667 9.99935 11.6667C10.9198 11.6667 11.666 10.9205 11.666 10C11.666 9.07953 10.9198 8.33333 9.99935 8.33333ZM6.66602 15.4167C6.66602 14.036 7.7853 12.9167 9.16602 12.9167H10.8327C12.2134 12.9167 13.3327 14.036 13.3327 15.4167C13.3327 15.8769 12.9596 16.25 12.4993 16.25H7.49935C7.03911 16.25 6.66602 15.8769 6.66602 15.4167Z" fill="white"/>
<path d="M13.1243 2.35345C13.1243 2.1997 13.2849 2.10208 13.4045 2.19866C13.5053 2.28 13.5958 2.3753 13.6731 2.48296L16.1841 5.98121C16.2413 6.06085 16.1793 6.16422 16.0813 6.16422H13.3327C13.2176 6.16422 13.1243 6.07094 13.1243 5.95588V2.35345Z" fill="white"/>
</g>
</g>
</svg>
